<?xml version="1.0" standalone="no"?>
<!DOCTYPE svg PUBLIC "-//W3C//DTD SVG 20010904//EN"
 "http://www.w3.org/TR/2001/REC-SVG-20010904/DTD/svg10.dtd">
<svg version="1.0" xmlns="http://www.w3.org/2000/svg"
 width="255.000000pt" height="264.000000pt" viewBox="0 0 255.000000 264.000000"
 preserveAspectRatio="xMidYMid meet">

<g transform="translate(0.000000,264.000000) scale(0.100000,-0.100000)"
fill="#000000" stroke="none">
<path d="M1045 2510 c-421 -89 -755 -378 -899 -778 -89 -248 -89 -556 0 -804
247 -687 1030 -997 1684 -668 586 296 820 1024 520 1620 -164 324 -471 555
-839 630 -132 27 -338 27 -466 0z m-15 -1095 l0 -415 85 0 85 0 0 -85 0 -85
-170 0 -170 0 0 500 0 500 85 0 85 0 0 -415z m424 388 c3 -16 31 -178 61 -362
30 -184 56 -335 57 -337 2 -1 30 161 63 362 l59 364 83 0 c46 0 83 -4 83 -10
0 -5 -36 -228 -80 -496 -44 -267 -80 -488 -80 -490 0 -2 -38 -4 -85 -4 -80 0
-85 1 -90 23 -3 12 -39 227 -80 477 -41 250 -77 465 -80 478 -5 20 -2 22 39
22 40 0 45 -2 50 -27z"/>
</g>
</svg>
